<svg xmlns="http://www.w3.org/2000/svg" viewBox="0 0 24 24" role="img" aria-label="Discord">
  <rect width="24" height="24" rx="6" fill="#5865F2"/>
  <path
    fill="#fff"
    d="M6.8 8.6c1-.8 2.2-1.3 3.5-1.5l.3.6a8.3 8.3 0 0 0-3.1 1.4c1.4-.6 2.9-.9 4.5-.9s3.1.3 4.5.9A8.3 8.3 0 0 0 13.4 7l.3-.6c1.3.2 2.5.7 3.5 1.5 1.1 1.7 1.8 3.6 2 5.6-1 .8-2.2 1.4-3.3 1.8l-.8-1.2c.4-.2.8-.4 1.2-.7a7.9 7.9 0 0 1-8.6 0c.4.3.8.5 1.2.7l-.8 1.2c-1.2-.4-2.3-1-3.3-1.8.2-2 .9-3.9 2-5.6Z"
  />
  <circle cx="10.2" cy="11.8" r="1" fill="#5865F2"/>
  <circle cx="13.8" cy="11.8" r="1" fill="#5865F2"/>
  <path d="M9.8 14.2c.7.5 1.5.8 2.2.8.7 0 1.5-.3 2.2-.8" stroke="#5865F2" stroke-width="1.1" stroke-linecap="round"/>
</svg>
